<?xml version="1.0" encoding="UTF-8"?>
<svg id="border" xmlns="http://www.w3.org/2000/svg" viewBox="0 0 1721.53 417.7">
  <defs>
    <style>
      .cls-1 {
        fill: #148246;
      }

      .cls-2 {
        fill: #f57832;
      }
    </style>
  </defs>
  <g id="Artwork_5">
    <g>
      <path class="cls-1" d="M1070.87,244.85v20.51h-43.21c-4.72,0-8.79.9-12.21,2.69-3.42,1.79-5.13,4.31-5.13,7.57,0,1.95.4,3.7,1.22,5.25.81,1.55,1.75,2.81,2.81,3.78,1.06.98,2.69,1.99,4.88,3.05,2.2,1.06,3.91,1.79,5.13,2.2,1.22.41,6.39,2.08,15.5,5.01,9.11,2.93,15.87,5.37,20.26,7.32,4.39,1.95,7.77,4.6,10.13,7.93,2.36,3.34,3.86,6.59,4.52,9.77.65,3.17.98,6.31.98,9.4,0,21.81-14.98,32.72-44.92,32.72h-42.23v-20.51h42.23c15.3,0,22.95-4.07,22.95-12.21,0-3.91-2.24-7.16-6.71-9.76-4.48-2.6-9.93-4.8-16.36-6.59-6.43-1.79-12.86-3.86-19.29-6.23-6.43-2.36-11.88-6.18-16.36-11.47-4.48-5.29-6.71-11.84-6.71-19.65,0-9.92,3.82-17.54,11.47-22.83,7.65-5.29,16.93-7.93,27.83-7.93h43.21Z"/>
      <path class="cls-1" d="M1094.88,417.7v-114.26c0-8.46,1.54-16.44,4.64-23.93,3.09-7.48,7.32-13.95,12.7-19.41,5.37-5.45,11.72-9.76,19.04-12.94,7.33-3.17,15.14-4.76,23.44-4.76s16.07,1.59,23.32,4.76c7.24,3.17,13.59,7.53,19.04,13.06,5.45,5.53,9.72,12,12.82,19.41,3.09,7.41,4.64,15.34,4.64,23.8s-1.51,16.4-4.52,23.8c-3.01,7.41-7.2,13.88-12.57,19.41-5.37,5.53-11.72,9.89-19.04,13.06-7.32,3.17-15.22,4.76-23.68,4.76-10.42,0-20.1-2.44-29.05-7.32v-21.97c7.97,5.86,17.41,8.79,28.32,8.79,5.86,0,11.19-1.02,15.99-3.05,4.8-2.03,8.87-4.84,12.21-8.42,3.33-3.58,5.9-7.85,7.69-12.82,1.79-4.96,2.69-10.38,2.69-16.24s-.9-11.27-2.69-16.23c-1.79-4.96-4.31-9.24-7.57-12.82-3.26-3.58-7.2-6.39-11.84-8.42-4.64-2.03-9.89-3.05-15.75-3.05s-10.86.98-15.5,2.93c-4.64,1.95-8.63,4.72-11.96,8.3-3.34,3.58-5.9,7.85-7.69,12.82-1.79,4.97-2.69,10.46-2.69,16.48v114.26h-21.97Z"/>
      <path class="cls-1" d="M1270.11,362.04h-21.48v-96.68h-20.02l9.77-20.51h31.74v117.19ZM1247.65,220.44c-2.12-2.77-3.17-5.77-3.17-9.03s1.06-6.23,3.17-8.91c2.11-2.69,5.37-4.03,9.77-4.03s7.65,1.34,9.76,4.03c2.11,2.69,3.17,5.66,3.17,8.91s-1.06,6.22-3.17,8.91c-2.12,2.69-5.37,4.03-9.76,4.03s-7.65-1.3-9.77-3.91Z"/>
      <path class="cls-1" d="M1301.06,315.65v-124.51h21.97v124.51c0,5.86.69,10.62,2.08,14.28,1.38,3.66,3.54,6.27,6.47,7.81,2.93,1.55,5.77,2.56,8.54,3.05,2.77.49,6.43.73,10.99.73v20.51c-18.23,0-31.13-3.5-38.7-10.5-7.57-7-11.35-18.96-11.35-35.89Z"/>
      <path class="cls-1" d="M1365.21,315.65v-124.51h21.97v124.51c0,5.86.69,10.62,2.07,14.28,1.38,3.66,3.54,6.27,6.47,7.81,2.93,1.55,5.77,2.56,8.54,3.05,2.77.49,6.43.73,10.99.73v20.51c-18.23,0-31.13-3.5-38.7-10.5-7.57-7-11.35-18.96-11.35-35.89Z"/>
      <path class="cls-1" d="M472.17,191.14h21.97v112.3c0,12.86,3.3,22.83,9.89,29.91,6.59,7.08,15.66,10.62,27.22,10.62s21.48-3.46,28.32-10.38c6.84-6.92,10.25-16.97,10.25-30.15s-3.7-22.42-11.11-29.66c-7.41-7.24-17.13-10.86-29.17-10.86-10.26,0-19.13,2.93-26.61,8.79v-21.97c8.95-4.88,18.63-7.32,29.05-7.32,17.25,0,31.53,5.58,42.85,16.72,11.31,11.15,16.97,25.92,16.97,44.31,0,19.37-5.9,34.39-17.7,45.05-11.8,10.66-26.65,15.99-44.55,15.99s-30.93-5.53-41.5-16.6c-10.58-11.07-15.87-25.88-15.87-44.43v-112.3Z"/>
      <path class="cls-1" d="M610.25,362.04v-66.65c0-18.72,3.5-31.65,10.5-38.82,3.42-3.58,7.57-6.27,12.45-8.06,4.88-1.79,9.16-2.85,12.82-3.17,3.66-.32,8.67-.49,15.01-.49h21.48v20.51h-25.88c-3.26,0-5.78.08-7.57.24-1.79.16-3.91.73-6.35,1.71-2.44.98-4.56,2.53-6.35,4.64-3.09,3.91-4.64,11.72-4.64,23.44v66.65h-21.48Z"/>
      <path class="cls-1" d="M752.22,242.41c27.67,1.14,41.51,12.61,41.51,34.42,0,27.18-17.82,40.77-53.47,40.77h-10.01v-18.8h11.72c10.9,0,18.47-1.67,22.71-5,4.23-3.34,6.35-8.91,6.35-16.73,0-5.04-1.87-8.83-5.61-11.35-3.75-2.52-8.55-3.78-14.41-3.78-11.56,0-20.63,4.07-27.22,12.21-6.59,8.14-9.89,17.91-9.89,29.3,0,12.05,3.54,21.81,10.62,29.3,7.08,7.49,16.31,11.23,27.71,11.23,10.26,0,18.64-2.52,25.15-7.57l14.65,14.4c-11.23,9.12-24.5,13.67-39.8,13.67-18.56,0-33.37-5.45-44.43-16.36-11.07-10.9-16.6-24.98-16.6-42.23,0-19.2,5.45-34.75,16.36-46.63,10.9-11.88,25.79-17.49,44.68-16.85Z"/>
      <path class="cls-1" d="M804.17,265.36l43.7-43.7v23.19h32.96v20.51h-32.96v50.29c0,5.7.93,10.42,2.81,14.16,1.87,3.75,4.6,6.39,8.18,7.93,3.58,1.55,6.96,2.56,10.13,3.05s7.12.73,11.84.73v20.51c-18.72,0-32.55-3.58-41.5-10.74-8.95-7.16-13.43-19.04-13.43-35.64v-50.29h-21.73Z"/>
      <path class="cls-1" d="M890.05,265.36l43.7-43.7v23.19h32.96v20.51h-32.96v50.29c0,5.7.93,10.42,2.81,14.16,1.87,3.75,4.6,6.39,8.18,7.93,3.58,1.55,6.96,2.56,10.13,3.05s7.12.73,11.84.73v20.51c-18.72,0-32.55-3.58-41.5-10.74-8.95-7.16-13.43-19.04-13.43-35.64v-50.29h-21.73Z"/>
      <path class="cls-2" d="M1439.39,360.09c-2.93-2.93-4.39-6.51-4.39-10.74s1.46-7.81,4.39-10.74c2.93-2.93,6.51-4.39,10.74-4.39s7.81,1.46,10.74,4.39c2.93,2.93,4.39,6.51,4.39,10.74s-1.46,7.81-4.39,10.74c-2.93,2.93-6.51,4.39-10.74,4.39s-7.81-1.46-10.74-4.39Z"/>
      <path class="cls-1" d="M1486.15,244.85h42.23c18.07,0,31.01,2.69,38.82,8.06,7,4.72,11.43,10.38,13.31,16.97,1.87,6.59,2.81,15.26,2.81,26v66.16h-21.48v-65.92c0-2.93-.08-5.41-.24-7.45-.16-2.03-.73-4.64-1.71-7.81s-2.36-5.77-4.15-7.81c-1.79-2.03-4.39-3.82-7.81-5.37-3.42-1.54-7.57-2.32-12.45-2.32h-27.83v96.68h-21.48v-117.19Z"/>
      <path class="cls-1" d="M1618.99,260.23c11.39-11.88,25.63-17.82,42.72-17.82,8.3,0,16.07,1.59,23.31,4.76,7.24,3.17,13.59,7.53,19.04,13.06,5.45,5.53,9.72,12,12.82,19.41,3.09,7.41,4.64,15.34,4.64,23.8s-1.51,16.4-4.52,23.8c-3.01,7.41-7.2,13.88-12.57,19.41-5.37,5.53-11.72,9.89-19.04,13.06-7.33,3.17-15.22,4.76-23.68,4.76s-16.56-1.59-23.8-4.76c-7.24-3.17-13.55-7.53-18.92-13.06-5.37-5.53-9.56-12-12.57-19.41-3.01-7.4-4.52-15.34-4.52-23.8,0-17.25,5.7-31.65,17.09-43.21ZM1661.72,262.92c-11.4,0-20.55,3.75-27.47,11.23-6.92,7.49-10.38,17.25-10.38,29.3s3.46,21.81,10.38,29.3c6.92,7.49,16.07,11.23,27.47,11.23s20.75-3.78,27.59-11.35c6.84-7.57,10.25-17.29,10.25-29.18s-3.42-21.61-10.25-29.17c-6.84-7.57-16.03-11.35-27.59-11.35Z"/>
    </g>
    <path class="cls-2" d="M356.22,148.9c-6.25,25.65,8.91,65.01,33.27,85.26,23.29,19.39,43.97,11.8,46.9-14.45,2.71-24.5-11.05-57.93-31.3-76.72-21.02-19.55-43.1-17.89-48.86,5.91"/>
    <path class="cls-2" d="M13.47,49.4c-27.7,34.44-11.28,93.22,36.47,125.49,44.8,30.14,94.18,20.78,111.21-15.65,15.34-32.94-.4-79.4-35.63-107.8-37.27-29.99-87.31-32.86-112.05-2.04"/>
    <path class="cls-2" d="M217.03,14.31c-12.7,23.6,2.21,66.04,32.94,91.67,29.28,24.37,58.73,21.4,66.46-3.74,7.15-23.29-6.67-58.89-31.33-81.88-25.8-23.97-56.36-27.79-68.07-6.05"/>
  </g>
</svg>