<?xml version="1.0" encoding="UTF-8"?>
<svg xmlns="http://www.w3.org/2000/svg" viewBox="0 0 1615.84 417.7">
  <defs>
    <style>
      .cls-1 {
        fill: #148246;
      }

      .cls-2 {
        fill: #f57832;
      }
    </style>
  </defs>
  <g id="tekst">
    <g>
      <path class="cls-1" d="M563.93,244.85v20.51h-43.21c-4.72,0-8.79.9-12.21,2.69-3.42,1.79-5.13,4.32-5.13,7.57,0,1.95.4,3.7,1.22,5.25.81,1.55,1.75,2.81,2.81,3.78,1.06.98,2.69,2,4.88,3.05,2.2,1.06,3.91,1.79,5.13,2.2,1.22.41,6.39,2.08,15.5,5.01,9.11,2.93,15.87,5.37,20.26,7.32,4.39,1.95,7.77,4.6,10.13,7.93,2.36,3.34,3.86,6.59,4.52,9.77.65,3.17.98,6.31.98,9.4,0,21.81-14.98,32.72-44.92,32.72h-42.24v-20.51h42.24c15.3,0,22.95-4.07,22.95-12.21,0-3.91-2.24-7.16-6.71-9.76-4.48-2.6-9.93-4.8-16.36-6.59-6.43-1.79-12.86-3.86-19.29-6.23-6.43-2.36-11.88-6.18-16.36-11.47-4.48-5.29-6.71-11.84-6.71-19.65,0-9.93,3.82-17.54,11.47-22.83,7.65-5.29,16.93-7.93,27.83-7.93h43.21Z"/>
      <path class="cls-1" d="M587.26,417.7v-114.26c0-8.46,1.54-16.44,4.64-23.93,3.09-7.48,7.32-13.95,12.7-19.41,5.37-5.45,11.72-9.77,19.04-12.94,7.32-3.17,15.14-4.76,23.44-4.76s16.07,1.59,23.32,4.76c7.24,3.17,13.59,7.53,19.04,13.06,5.45,5.53,9.72,12,12.82,19.41,3.09,7.41,4.64,15.34,4.64,23.8s-1.51,16.4-4.52,23.8c-3.01,7.41-7.2,13.88-12.57,19.41-5.37,5.53-11.72,9.89-19.04,13.06-7.32,3.17-15.22,4.76-23.68,4.76-10.42,0-20.1-2.44-29.05-7.32v-21.97c7.97,5.86,17.41,8.79,28.32,8.79,5.86,0,11.19-1.02,15.99-3.05,4.8-2.03,8.87-4.84,12.21-8.42,3.33-3.58,5.9-7.85,7.69-12.82,1.79-4.96,2.69-10.38,2.69-16.24s-.9-11.27-2.69-16.23c-1.79-4.96-4.31-9.24-7.57-12.82-3.26-3.58-7.2-6.39-11.84-8.42-4.64-2.03-9.89-3.05-15.75-3.05s-10.86.98-15.5,2.93c-4.64,1.95-8.63,4.72-11.96,8.3-3.34,3.58-5.9,7.85-7.69,12.82-1.79,4.97-2.69,10.46-2.69,16.48v114.26h-21.97Z"/>
      <path class="cls-1" d="M756.8,362.04h-21.48v-96.68h-20.02l9.77-20.51h31.74v117.19ZM734.34,220.44c-2.12-2.77-3.17-5.78-3.17-9.03s1.06-6.23,3.17-8.91c2.11-2.69,5.37-4.03,9.77-4.03s7.65,1.34,9.76,4.03c2.11,2.69,3.17,5.66,3.17,8.91s-1.06,6.23-3.17,8.91c-2.12,2.69-5.37,4.03-9.76,4.03s-7.65-1.3-9.77-3.91Z"/>
      <path class="cls-1" d="M785.04,315.65v-124.51h21.97v124.51c0,5.86.69,10.62,2.08,14.28,1.38,3.66,3.54,6.27,6.47,7.81,2.93,1.55,5.77,2.56,8.54,3.05,2.77.49,6.43.73,10.99.73v20.51c-18.23,0-31.13-3.5-38.7-10.5-7.57-7-11.35-18.96-11.35-35.89Z"/>
      <path class="cls-1" d="M844.99,191.14h21.97v112.3c0,12.86,3.3,22.83,9.89,29.91,6.59,7.08,15.66,10.62,27.22,10.62s21.48-3.46,28.32-10.38c6.84-6.92,10.25-16.97,10.25-30.15s-3.7-22.42-11.11-29.66c-7.41-7.24-17.13-10.86-29.17-10.86-10.25,0-19.13,2.93-26.61,8.79v-21.97c8.95-4.88,18.63-7.32,29.05-7.32,17.25,0,31.53,5.58,42.85,16.72,11.31,11.15,16.97,25.92,16.97,44.31,0,19.37-5.9,34.39-17.7,45.04-11.8,10.66-26.65,15.99-44.55,15.99s-30.93-5.53-41.5-16.6c-10.58-11.07-15.87-25.88-15.87-44.43v-112.3Z"/>
      <path class="cls-1" d="M985.09,362.04v-66.65c0-18.72,3.5-31.65,10.5-38.82,3.42-3.58,7.57-6.26,12.45-8.06,4.88-1.79,9.15-2.85,12.82-3.17,3.66-.32,8.67-.49,15.01-.49h21.48v20.51h-25.88c-3.26,0-5.78.08-7.57.24-1.79.16-3.91.73-6.35,1.71-2.44.98-4.56,2.53-6.35,4.64-3.09,3.91-4.64,11.72-4.64,23.44v66.65h-21.48Z"/>
      <path class="cls-1" d="M1127.81,291.73l.24,20.51c-5.05-2.77-11.15-4.15-18.31-4.15-7.65,0-13.59,1.51-17.82,4.52-4.24,3.01-6.35,7.29-6.35,12.82s2.16,9.85,6.47,12.94c4.31,3.09,10.21,4.64,17.7,4.64,12.53,0,24.66-4.55,36.38-13.67-2.77-7.32-4.15-15.14-4.15-23.44,0-.33.04-1.63.12-3.91.08-2.28.12-4.64.12-7.08,0-19.69-9.77-29.54-29.3-29.54h-39.06v-20.51h40.28c19.2,0,32.96,5.86,41.26,17.58,10.9-13.34,26.77-20.02,47.61-20.02,27.67,0,41.5,11.47,41.5,34.42,0,27.18-17.82,40.77-53.47,40.77h-10.01v-18.8h11.72c10.9,0,18.47-1.67,22.71-5,4.23-3.33,6.35-8.91,6.35-16.72,0-5.04-1.87-8.83-5.61-11.35-3.75-2.52-8.55-3.78-14.41-3.78-11.56,0-20.63,4.07-27.22,12.21-6.59,8.14-9.89,17.91-9.89,29.3,0,12.05,3.54,21.81,10.62,29.3,7.08,7.49,16.32,11.23,27.71,11.23,10.25,0,18.64-2.52,25.15-7.57l14.65,14.4c-11.23,9.12-24.5,13.67-39.8,13.67-20.35,0-36.05-6.43-47.12-19.29-15.14,11.07-30.76,16.6-46.87,16.6-13.02,0-23.85-3.13-32.47-9.4-8.63-6.26-12.94-15.34-12.94-27.22s4.27-20.83,12.82-26.86c8.55-6.02,19.41-9.03,32.59-9.03,6.67,0,12.94.82,18.8,2.44Z"/>
      <path class="cls-1" d="M1254.78,265.36l43.7-43.7v23.19h32.96v20.51h-32.96v50.29c0,5.7.93,10.42,2.81,14.16,1.87,3.75,4.6,6.39,8.18,7.93,3.58,1.55,6.96,2.56,10.13,3.05s7.12.73,11.84.73v20.51c-18.72,0-32.55-3.58-41.5-10.74-8.95-7.16-13.43-19.04-13.43-35.64v-50.29h-21.73Z"/>
      <path class="cls-2" d="M1351.1,360.09c-2.93-2.93-4.39-6.51-4.39-10.74s1.46-7.81,4.39-10.74c2.93-2.93,6.51-4.39,10.74-4.39s7.81,1.46,10.74,4.39,4.39,6.51,4.39,10.74-1.46,7.81-4.39,10.74c-2.93,2.93-6.51,4.39-10.74,4.39s-7.81-1.46-10.74-4.39Z"/>
      <path class="cls-1" d="M1476,191.14h21.97v170.9h-57.37c-17.74,0-32.15-5.65-43.21-16.97-11.07-11.31-16.6-25.59-16.6-42.85s5.74-31.13,17.21-42.6c11.47-11.47,25.1-17.21,40.89-17.21,10.09,0,19.53,2.44,28.32,7.32v21.97c-8.14-5.86-17.58-8.79-28.32-8.79-9.77,0-18.03,3.62-24.78,10.86-6.76,7.24-10.13,16.72-10.13,28.44s3.21,21.4,9.64,28.57c6.43,7.16,15.42,10.74,26.98,10.74h35.4v-150.39Z"/>
      <path class="cls-1" d="M1591.67,244.85h23.68l-29.54,51.03c20.02,5.37,30.03,21.57,30.03,48.58v17.58h-21.48v-17.82c0-10.9-3.21-19.33-9.64-25.27-6.43-5.94-15.59-8.91-27.47-8.91-3.75,0-7.57.24-11.48.73v51.27h-21.48v-170.9h21.48v100.34c6.84-.98,13.67-.98,20.51,0l25.39-46.63Z"/>
    </g>
  </g>
  <g id="prikker">
    <path class="cls-2" d="M356.22,148.9c-6.25,25.65,8.91,65.01,33.27,85.26,23.29,19.39,43.97,11.8,46.9-14.45,2.71-24.5-11.05-57.93-31.3-76.72-21.02-19.55-43.1-17.89-48.86,5.91"/>
    <path class="cls-2" d="M13.47,49.4c-27.7,34.44-11.28,93.22,36.47,125.49,44.8,30.14,94.18,20.78,111.21-15.65,15.34-32.94-.4-79.4-35.63-107.8-37.27-29.99-87.31-32.86-112.05-2.04"/>
    <path class="cls-2" d="M217.03,14.31c-12.7,23.6,2.21,66.04,32.94,91.67,29.28,24.37,58.73,21.4,66.46-3.74,7.15-23.29-6.67-58.89-31.33-81.88-25.8-23.97-56.36-27.79-68.07-6.05"/>
  </g>
</svg>